<svg width="619" height="278" viewBox="0 0 619 278" fill="none" xmlns="http://www.w3.org/2000/svg">
<path d="M298 14.9044C298 27.2895 308.26 33.8883 315.769 39.7969C318.418 41.8801 320.97 43.8437 323.522 43.8437C326.074 43.8437 328.627 41.8827 331.276 39.7943C338.787 33.8908 349.044 27.2895 349.044 14.907C349.044 2.52445 335.007 -6.26455 323.522 5.64428C312.037 -6.26455 298 2.51936 298 14.9044Z" fill="#C62328"/>
<path d="M149.499 121.165C151.376 118.488 153.351 115.649 155.45 112.629C156.725 110.691 158.628 109.717 160.214 109.717C162.436 109.717 164.34 111.655 164.34 114.567C164.34 116.181 156.689 107.743 155.414 110.006C139.838 138.807 133.826 164.074 115.071 176.369C113.158 194.813 109.988 214.23 102.674 229.437C91.2242 253.712 68.3429 268.92 42.9113 268.92C20.0212 268.92 0 256.948 0 233.322C0 200.636 38.776 188.016 73.7444 176.369L81.3774 173.782L82.9625 160.513C70.5655 171.195 59.1248 174.107 49.588 174.107C29.2481 174.107 18.4361 157.601 18.4361 137.545C18.4361 122.662 22.8902 101.947 29.2481 85.7662C37.1999 65.7003 46.4179 48.8795 58.1773 48.8795C69.9368 48.8795 76.2947 57.6144 76.2947 68.2964C76.2947 74.1197 73.4345 77.3558 68.6617 86.4152C58.8149 104.859 54.6796 121.688 54.6796 132.686C54.6796 142.394 58.4961 148.542 64.2165 148.542C72.4782 148.542 79.1548 144.017 85.5127 136.896C90.2767 100.658 100.451 54.3783 127.477 54.3783C137.97 54.3783 142.734 61.4996 142.734 72.4971C142.734 91.914 128.752 116.505 116.983 134.308C116.983 141.43 116.665 150.489 116.346 159.549C127.76 151.048 136.252 140.06 149.499 121.165ZM79.4648 189.972C56.5746 198.707 32.0994 211.011 32.0994 232.691C32.0994 244.662 38.4573 250.81 46.719 250.81C61.9761 250.81 74.0544 229.455 79.4559 189.972H79.4648Z" fill="#C62328"/>
<path d="M270.672 73.8042C270.672 90.9585 256.69 113.287 247.472 123.635C247.153 126.223 247.153 129.134 247.153 131.73C247.153 141.439 251.599 145.964 257.009 145.964C263.048 145.964 272.585 144.026 294.2 112.638C295.475 110.7 297.379 109.726 298.964 109.726C301.187 109.726 303.091 111.664 303.091 114.576C303.091 116.19 296.458 106.815 295.183 109.077C271.336 152.761 256.363 174.116 239.83 174.116C226.796 174.116 218.853 166.354 214.718 155.023C200.417 170.555 187.063 174.116 176.251 174.116C155.912 174.116 145.1 157.611 145.1 137.554C145.1 122.671 149.554 101.956 155.912 85.7753C163.863 65.7094 173.081 48.8886 184.841 48.8886C196.6 48.8886 202.958 57.6235 202.958 68.3055C202.958 74.1288 200.417 77.3649 195.325 86.4243C185.16 104.868 180.068 118.786 180.068 131.73C180.068 145.324 185.151 148.56 190.88 148.56C198.513 148.56 205.5 144.35 212.176 137.878V137.554C212.176 122.671 217.587 101.956 223.936 85.7753C231.887 65.7094 243.009 54.3874 254.769 54.3874C266.528 54.3874 270.664 63.1223 270.664 73.8042H270.672Z" fill="#C62328"/>
<path d="M341.727 68.3055C341.727 74.1288 338.867 77.3649 334.094 86.4243C324.557 104.868 320.112 121.697 320.112 132.695C320.112 142.403 324.247 145.964 328.692 145.964C334.731 145.964 344.268 144.026 365.883 112.638C367.158 110.7 369.062 109.726 370.647 109.726C372.87 109.726 374.774 111.664 374.774 114.576C374.774 116.19 368.743 106.283 367.468 108.546C343.631 152.229 328.046 174.116 311.514 174.116C292.759 174.116 283.859 157.611 283.859 137.554C283.859 122.671 288.313 101.956 294.671 85.7753C302.623 65.7094 311.841 48.8886 323.601 48.8886C335.36 48.8886 341.718 57.6235 341.718 68.3055H341.727Z" fill="#C62328"/>
<path d="M388.306 135.606C403.563 100.009 434.077 48.8795 462.369 48.8795C471.268 48.8795 481.762 55.0273 481.762 71.5325C481.762 97.4217 461.094 122.337 461.094 137.22C461.094 142.07 463.635 144.981 466.504 144.981C470.95 144.981 479.539 144.008 501.154 112.62C502.429 110.682 504.333 109.708 505.918 109.708C508.141 109.708 510.044 111.646 510.044 114.558C510.044 116.172 501.384 109.167 500.109 111.439C476.263 155.123 467.124 174.107 451.548 174.107C435.972 174.107 425.479 162.46 425.479 145.63C425.479 123.302 442.011 99.6753 442.011 88.0288C442.011 85.7662 440.736 84.1436 438.833 84.1436C431.2 84.1436 411.807 111.971 400.685 142.07C393.69 161.162 391.786 174.107 381.293 174.107C370.162 174.107 363.804 167.634 359.996 157.926C358.403 153.716 357.455 143.683 357.455 135.273C357.455 127.512 359.359 115.856 361.9 103.56C367.939 73.4616 375.254 60.2015 387.332 60.2015C396.869 60.2015 404.493 68.9364 404.493 78.3203C404.493 88.3533 392.096 104.21 388.279 135.597L388.306 135.606Z" fill="#C62328"/>
<path d="M591.592 71.5416H593.186C601.129 71.5416 605.902 77.0403 605.902 86.7488C605.902 102.929 592.867 124.933 585.88 135.931C586.837 144.666 590.644 147.253 595.099 147.253C604.954 147.253 611.303 138.716 614.81 134.957C617.094 132.506 618.175 128.386 618.175 130.973C618.175 140.682 602.413 171.844 580.16 171.844C570.942 171.844 563.628 167.959 559.174 160.198C548.043 170.88 537.24 174.116 526.747 174.116C506.407 174.116 490.193 158.909 490.193 132.37C490.193 89.9759 525.79 48.8795 562.99 48.8795C579.841 48.8795 591.92 59.237 591.92 69.5855C591.92 70.2345 591.601 70.8835 591.601 71.5235L591.592 71.5416ZM554.72 143.377V139.492C554.72 123.635 560.121 103.894 569.021 89.9849C565.523 89.3359 562.025 88.0468 562.025 85.7752C562.025 82.8636 564.566 81.25 564.566 76.0668C564.566 70.2435 561.706 66.6828 556.305 66.6828C544.227 66.6828 524.834 89.9759 524.834 122.662C524.834 139.492 531.83 148.876 542.004 148.876C547.406 148.876 551.541 146.613 554.72 143.377Z" fill="#C62328"/>
<path d="M44.2482 273.733C26.1398 273.733 10.5373 267.09 3.43555 257.525C8.1287 268.775 24.6167 277.087 44.2482 277.087C63.8798 277.087 80.3678 268.775 85.0609 257.525C77.9592 267.09 62.3656 273.733 44.2482 273.733Z" fill="#C62328"/>
<path d="M178.333 178.938C165.874 178.938 155.142 174.368 150.263 167.788C153.486 175.522 164.838 181.246 178.333 181.246C191.828 181.246 203.18 175.531 206.403 167.797C201.515 174.377 190.792 178.947 178.333 178.947V178.938Z" fill="#C62328"/>
<path d="M239.193 177.226C230.444 177.226 222.908 174.017 219.473 169.392C221.74 174.828 229.709 178.839 239.193 178.839C248.676 178.839 256.646 174.828 258.913 169.392C255.477 174.017 247.941 177.226 239.193 177.226Z" fill="#C62328"/>
<path d="M309.903 177.226C301.154 177.226 293.618 174.017 290.183 169.392C292.449 174.828 300.419 178.839 309.903 178.839C319.386 178.839 327.356 174.828 329.623 169.392C326.187 174.017 318.651 177.226 309.903 177.226Z" fill="#C62328"/>
<path d="M450.265 177.622C441.516 177.622 433.981 174.413 430.545 169.789C432.812 175.224 440.781 179.236 450.265 179.236C459.749 179.236 467.718 175.224 469.985 169.789C466.549 174.413 459.014 177.622 450.265 177.622Z" fill="#C62328"/>
<path d="M377.442 177.902C370.216 177.902 363.982 175.252 361.148 171.429C363.017 175.919 369.605 179.236 377.442 179.236C385.278 179.236 391.858 175.919 393.735 171.429C390.901 175.252 384.676 177.902 377.442 177.902Z" fill="#C62328"/>
<path d="M579.461 177.316C571.456 177.316 564.558 174.377 561.423 170.149C563.495 175.125 570.783 178.794 579.461 178.794C588.139 178.794 595.427 175.125 597.499 170.149C594.355 174.377 587.466 177.316 579.461 177.316Z" fill="#C62328"/>
<path d="M526.446 177.163C516.404 177.163 507.762 174.422 503.821 170.474C506.425 175.116 515.563 178.542 526.446 178.542C537.329 178.542 546.467 175.116 549.07 170.474C545.13 174.422 536.487 177.163 526.446 177.163Z" fill="#C62328"/>
</svg>
