<?xml version="1.0" encoding="UTF-8"?>
<svg id="_レイヤー_1" data-name=" レイヤー 1" xmlns="http://www.w3.org/2000/svg" viewBox="0 0 767.43 200.75">
  <path d="M93.19,110.26c1.17-1.64,2.4-3.38,3.71-5.23.79-1.19,1.98-1.78,2.97-1.78,1.39,0,2.57,1.19,2.57,2.97,0,.99-4.77-4.18-5.56-2.79-9.71,17.64-13.46,33.11-25.15,40.64-1.19,11.29-3.17,23.18-7.73,32.5-7.13,14.86-21.4,24.18-37.25,24.18-14.27,0-26.75-7.33-26.75-21.8,0-20.01,24.17-27.74,45.97-34.87l4.76-1.59.99-8.12c-7.73,6.54-14.86,8.32-20.81,8.32-12.68,0-19.42-10.11-19.42-22.39,0-9.11,2.78-21.8,6.74-31.7,4.96-12.29,10.7-22.59,18.03-22.59s11.29,5.35,11.29,11.89c0,3.57-1.78,5.55-4.76,11.1-6.14,11.29-8.72,21.6-8.72,28.34,0,5.94,2.38,9.71,5.94,9.71,5.15,0,9.31-2.77,13.28-7.13,2.97-22.19,9.31-50.53,26.16-50.53,6.54,0,9.51,4.36,9.51,11.1,0,11.89-8.72,26.95-16.05,37.85,0,4.36-.2,9.91-.4,15.45,7.12-5.21,12.41-11.93,20.67-23.51M49.54,152.39c-14.27,5.35-29.52,12.88-29.52,26.16,0,7.33,3.96,11.1,9.12,11.1,9.51,0,17.04-13.08,20.41-37.25h0Z"/>
  <path d="M170.6,81.26c0,10.5-8.72,24.17-14.46,30.51-.2,1.59-.2,3.37-.2,4.95,0,5.94,2.77,8.72,6.14,8.72,3.76,0,9.71-1.19,23.18-20.41.79-1.19,1.98-1.78,2.97-1.78,1.39,0,2.57,1.19,2.57,2.97,0,.99-4.13-4.75-4.93-3.37-14.86,26.75-24.2,39.82-34.5,39.82-8.12,0-13.08-4.76-15.65-11.69-8.92,9.51-17.24,11.69-23.98,11.69-12.68,0-19.42-10.11-19.42-22.39,0-9.11,2.78-21.8,6.74-31.7,4.96-12.29,10.7-22.59,18.03-22.59s11.29,5.35,11.29,11.89c0,3.57-1.59,5.55-4.76,11.1-6.34,11.29-9.51,19.82-9.51,27.74,0,8.32,3.17,10.3,6.74,10.3,4.76,0,9.12-2.58,13.28-6.54v-.2c0-9.11,3.37-21.8,7.33-31.7,4.96-12.29,11.89-19.22,19.22-19.22s9.91,5.35,9.91,11.89h0Z"/>
  <path d="M216.76,77.89c0,3.57-1.78,5.55-4.76,11.1-5.94,11.29-8.72,21.6-8.72,28.34,0,5.94,2.58,8.12,5.35,8.12,3.76,0,9.71-1.19,23.18-20.41.79-1.19,1.98-1.78,2.97-1.78,1.39,0,2.57,1.19,2.57,2.97,0,.99-3.76-5.08-4.55-3.69-14.86,26.75-24.58,40.15-34.88,40.15-11.69,0-17.24-10.11-17.24-22.39,0-9.11,2.78-21.8,6.74-31.7,4.96-12.29,10.7-22.59,18.03-22.59s11.29,5.35,11.29,11.89h.02Z"/>
  <path d="M247.66,119.1c9.51-21.8,28.53-53.1,46.17-53.1,5.55,0,12.09,3.76,12.09,13.87,0,15.85-12.88,31.11-12.88,40.22,0,2.97,1.59,4.76,3.37,4.76,2.77,0,8.12-.59,21.6-19.82.79-1.19,1.98-1.78,2.97-1.78,1.39,0,2.57,1.19,2.57,2.97,0,.99-5.4-3.3-6.19-1.91-14.86,26.75-20.56,38.37-30.27,38.37s-16.25-7.13-16.25-17.44c0-13.67,10.3-28.14,10.3-35.27,0-1.39-.79-2.38-1.98-2.38-4.76,0-16.84,17.04-23.78,35.47-4.36,11.69-5.55,19.62-12.09,19.62-6.94,0-10.9-3.96-13.28-9.91-.99-2.58-1.59-8.72-1.59-13.87,0-4.76,1.19-11.89,2.77-19.42,3.76-18.43,8.32-26.55,15.85-26.55,5.94,0,10.7,5.35,10.7,11.1,0,6.14-7.73,15.85-10.1,35.07h.02,0Z"/>
  <path d="M376.25,79.87h.99c4.95,0,7.92,3.37,7.92,9.31,0,9.91-8.12,23.38-12.48,30.12.59,5.35,2.97,6.93,5.75,6.93,6.14,0,10.1-5.23,12.29-7.53,1.43-1.5,2.1-4.02,2.1-2.44,0,5.94-9.83,25.03-23.7,25.03-5.75,0-10.31-2.38-13.08-7.13-6.94,6.54-13.67,8.52-20.21,8.52-12.68,0-22.79-9.31-22.79-25.56,0-25.96,22.19-51.12,45.38-51.12,10.5,0,18.03,6.34,18.03,12.68,0,.4-.2.79-.2,1.19ZM353.27,123.86v-2.38c0-9.71,3.37-21.8,8.92-30.32-2.18-.4-4.36-1.19-4.36-2.58,0-1.78,1.59-2.77,1.59-5.94,0-3.57-1.78-5.75-5.15-5.75-7.53,0-19.62,14.27-19.62,34.28,0,10.3,4.36,16.05,10.7,16.05,3.37,0,5.94-1.39,7.92-3.37h0Z"/>
  <path d="M501.86,105.23c-4.76,19.62-20.01,37.45-41.02,37.45-17.24,0-26.55-12.09-26.55-27.15,0-20.61,17.44-38.04,28.73-42.21,2.77-7.13,9.91-11.69,17.44-11.69,12.28,0,22.98,11.49,22.98,30.91,0,1.58-.2,3.17-.2,4.76,12.09-2.58,20.01-9.71,22.39-11.89,1.39-1.19,2.18-1.59,3.17-1.59s2.18.79,2.18,2.38c0,.79-.4,2.18-1.59,3.76-3.96,5.75-14.86,12.68-27.54,15.26h.01ZM487.8,106.02c-13.28-1.59-22.79-9.71-25.36-19.42-4.16,5.55-7.33,14.27-7.33,22.79,0,10.3,4.75,18.82,13.47,18.82,9.71,0,16.84-10.11,19.22-22.19h0ZM488.79,97.7v-.99c0-10.3-3.76-16.25-8.32-16.25-2.58,0-4.96,1.98-4.96,5.75,0,5.55,4.96,10.11,13.28,11.49Z"/>
  <path d="M566.65.01c9.71,0,14.66,8.12,14.66,20.01,0,21.99-21.8,53.7-44.98,72.92-1.78,6.93-3.17,14.07-3.96,20.81,10.9-20.41,28.93-47.75,43.79-47.75,5.55,0,11.29,3.76,11.29,13.87,0,15.85-12.09,31.11-12.09,40.22,0,2.97,1.59,4.76,3.37,4.76,2.78,0,8.13-.59,21.6-19.82.79-1.19,1.98-1.78,2.97-1.78,1.39,0,2.58,1.19,2.58,2.97,0,.99-7.39.46-8.18,1.84-14.86,26.75-18.57,34.62-28.28,34.62s-15.85-7.13-15.85-17.44c0-13.67,9.12-30.91,9.12-35.67,0-.99-.4-1.59-1.19-1.59-4.56,0-16.84,16.64-23.78,35.07-4.36,11.69-5.55,19.62-12.08,19.62-6.94,0-10.9-3.96-13.28-9.91-.99-2.58-1.58-8.72-1.58-13.87,0-4.76.79-12.29,2.18-19.82,7.92-41.61,30.51-99.07,53.7-99.07h0ZM539.9,80.46c15.85-17.44,27.34-37.25,27.34-48.55,0-1.39-.2-3.17-2.18-3.17-5.15,0-17.04,24.17-25.16,51.72h0Z"/>
  <path d="M662.74,107.01c-5.35,19.02-20.21,35.67-40.62,35.67-17.24,0-26.55-12.09-26.55-27.15,0-20.61,17.44-38.04,28.73-42.21,2.77-7.13,9.91-11.69,17.44-11.69,12.28,0,22.98,11.49,22.98,30.91,0,1.78-.2,3.57-.4,5.35,9.51-4.56,13.28-15.06,14.66-20.01.4-1.59,2.57-1.59,3.37-1.59,2.58,0,5.15,2.58,5.15,4.95,0,.79-.2,1.98-.79,3.37-2.77,6.54-11.69,18.03-23.98,22.39h.01ZM648.48,108.6c-13.47-1.78-22.39-11.49-24.97-21.99-3.96,5.55-7.13,14.27-7.13,22.79,0,10.3,4.75,18.82,13.47,18.82s15.65-8.72,18.63-19.62ZM649.86,100.08c.2-1.19.2-2.18.2-3.37,0-10.3-3.76-16.25-8.32-16.25-2.58,0-4.96,2.58-4.96,6.34,0,5.75,4.36,11.89,13.08,13.28h0Z"/>
  <path d="M688.69,78.88h2.38c5.75,0,13.08-1.98,16.25-4.36,1.98-1.59,3.57-2.18,4.76-2.18,3.17,0,7.73,4.16,7.73,9.11,0,2.97-1.59,5.94-3.96,9.71-4.56,7.33-11.1,18.23-11.1,28.14,0,3.76,2.18,5.55,4.56,5.55,2.77,0,8.12-.59,21.6-19.82.79-1.19,1.98-1.78,2.97-1.78,1.39,0,2.57,1.19,2.57,2.97,0,.99-5.79-1.11-6.58.27-14.86,26.75-20.37,36.19-31.07,36.19-9.91,0-17.24-6.93-17.24-17.24,0-9.51,8.12-22.19,14.47-29.92-12.68-2.97-25.36-11.69-25.36-24.37,0-7.93,5.15-14.66,11.69-14.66,4.95,0,8.12,4.76,8.12,12.09,0,2.38-.59,5.94-1.78,10.3h0Z"/>
  <path d="M754.48,125.84c5.75,0,8.17-3.6,9.71-5.15,1.24-1.25,4.06-6.68,3.01-3.44-1.59,4.9-8.37,25.44-23.62,25.44-11.89,0-17.24-10.11-17.24-22.39,0-9.11,2.78-21.8,6.74-31.7,4.96-12.29,10.7-22.59,18.03-22.59s11.29,5.35,11.29,11.89c0,3.57-1.78,5.55-4.76,11.1-5.94,11.29-8.72,21.6-8.72,28.34,0,5.94,2.58,8.52,5.55,8.52v-.02h0Z"/>
</svg>